<?xml version="1.0" encoding="utf-8"?>
<!-- Generator: Adobe Illustrator 27.5.0, SVG Export Plug-In . SVG Version: 6.00 Build 0)  -->
<svg version="1.1" xmlns="http://www.w3.org/2000/svg" xmlns:xlink="http://www.w3.org/1999/xlink" x="0px" y="0px"
	 viewBox="0 0 3710 3710" style="enable-background:new 0 0 3710 3710;" xml:space="preserve">
<g id="Background">
	<g>
		<g>
			<rect style="fill:#FFFFFF;" width="3710" height="3710"/>
		</g>
	</g>
</g>
<g id="Illustration">
	<g>
		<path style="fill:#F4F7FA;" d="M2994.5,2613.834c-566.356,724.433-1892.698,736.064-2259.87,333.668
			c-146.542-160.578-185.234-436.373-242.109-841.483c-27.38-195.013-31.3-352.207-33.625-460.058
			c-8.016-366.869-12.006-550.321,47.053-675.125c169.168-357.247,756.83-496.29,1136.669-502.74
			c26.51-0.458,53.265-0.282,80.228,0.529c444.763,13.252,946.646,198.396,1256.178,594.025
			c31.995,40.814,61.872,83.884,89.46,129.245C3351.019,1656.5,3303.478,2218.663,2994.5,2613.834z"/>
		<g>
			
				<linearGradient id="SVGID_1_" gradientUnits="userSpaceOnUse" x1="692.7484" y1="888.5233" x2="-481.7235" y2="556.1723" gradientTransform="matrix(0.9452 -0.3266 0.3266 0.9452 1503.7397 284.8328)">
				<stop  offset="0" style="stop-color:#311944"/>
				<stop  offset="1" style="stop-color:#893976"/>
			</linearGradient>
			<path style="fill:url(#SVGID_1_);" d="M1515.95,1184.464c38.68,13.998,82.324-8.604,97.482-50.486
				c15.158-41.882-3.911-87.183-42.59-101.182c-2.004-0.726-4.028-1.293-6.053-1.826c4.077-22.644,6.469-45.253,7.18-67.665
				c2.086-0.263,4.175-0.556,6.28-1.008c41.077-8.818,69.339-51.041,63.127-94.313c-6.212-43.272-44.548-71.202-85.624-62.385
				c-2.148,0.462-4.237,1.067-6.311,1.705c-6.986-20.962-15.516-41.229-25.518-60.629c1.773-1.354,3.531-2.743,5.228-4.272
				c32.466-29.27,37.776-79.804,11.858-112.868c-25.919-33.065-73.25-36.139-105.716-6.869c-1.664,1.5-3.207,3.089-4.728,4.696
				c-15.946-13.787-33.109-26.269-51.379-37.339c0.934-2.064,1.841-4.15,2.626-6.32c15.158-41.882,36.007-88.161-2.887-101.552
				c-89.974-30.979-122.025,8.974-137.185,50.856c-0.784,2.17-1.423,4.353-2.026,6.536c-21.124-3.187-42.3-4.581-63.376-4.194
				c-0.139-2.207-0.309-4.415-0.627-6.633c-6.213-43.269,3.767-68.329-38.022-64.005c-91.128,9.429-116.941,52.667-110.729,95.935
				c0.324,2.262,0.787,4.455,1.283,6.629c-20.102,8.504-39.627,18.616-58.411,30.253c-1.185-1.818-2.404-3.62-3.758-5.35
				c-25.918-33.064-73.249-36.138-105.717-6.866c-32.467,29.273-37.776,79.804-11.858,112.868c1.327,1.695,2.746,3.256,4.18,4.793
				c-13.797,17.676-26.43,36.579-37.789,56.587c-1.897-0.888-3.816-1.747-5.82-2.472c-38.679-13.999-82.324,8.604-97.482,50.486
				c-15.158,41.882,3.91,87.183,42.589,101.182c2.004,0.725,4.029,1.293,6.054,1.825c-4.078,22.644-6.47,45.253-7.181,67.665
				c-2.086,0.263-4.176,0.556-6.279,1.005c-41.077,8.82-69.34,51.044-63.128,94.316c6.213,43.271,44.549,71.199,85.625,62.382
				c2.146-0.46,4.237-1.064,6.31-1.703c6.985,20.962,15.515,41.229,25.519,60.63c-1.772,1.353-3.532,2.742-5.228,4.272
				c-32.468,29.27-37.776,79.804-11.858,112.869c25.918,33.065,99.206,40.882,131.672,11.612c1.664-1.5-22.75-7.832-21.229-9.439
				c15.946,13.786,33.11,26.269,51.38,37.34c-0.933,2.063-1.841,4.15-2.626,6.319c-15.158,41.881,3.91,87.183,42.59,101.182
				c38.68,13.999,82.324-8.605,97.482-50.486c0.785-2.17,1.423-4.353,2.026-6.537c21.124,3.187,42.3,4.581,63.376,4.194
				c0.14,2.207,0.309,4.415,0.627,6.633c6.213,43.27,44.548,71.2,85.624,62.382c41.077-8.818,69.34-51.044,63.127-94.313
				c-0.325-2.261-0.787-4.455-1.284-6.629c20.103-8.504,39.628-18.616,58.412-30.252c1.185,1.818,2.404,3.62,3.758,5.347
				c25.918,33.064,73.249,36.141,105.716,6.868c32.468-29.272,37.776-79.804,11.858-112.871c-1.328-1.692-2.746-3.254-4.181-4.791
				c13.797-17.675,26.429-36.579,37.789-56.587C1512.028,1182.88,1513.946,1183.739,1515.95,1184.464z M1062.859,1246.114
				c-140.437-50.828-209.668-215.304-154.631-367.368c55.036-152.066,213.498-234.134,353.934-183.306
				c140.437,50.828,209.668,215.304,154.632,367.368C1361.758,1214.874,1203.296,1296.942,1062.859,1246.114z"/>
			
				<linearGradient id="SVGID_00000124149011653635884280000013989393995593244048_" gradientUnits="userSpaceOnUse" x1="723.3312" y1="1614.1396" x2="-421.9292" y2="1290.0549" gradientTransform="matrix(0.9925 -0.1222 0.1222 0.9925 1487.7836 -344.5502)">
				<stop  offset="0" style="stop-color:#311944"/>
				<stop  offset="1" style="stop-color:#893976"/>
			</linearGradient>
			<path style="fill:url(#SVGID_00000124149011653635884280000013989393995593244048_);" d="M1578.25,962.299
				c41.076-8.819,69.338-51.044,63.127-94.315c-6.212-43.271-44.548-71.202-85.624-62.383c-2.148,0.461-4.237,1.067-6.311,1.704
				c-6.985-20.963-15.516-41.228-25.518-60.629c1.773-1.352,3.531-2.743,5.228-4.273c32.467-29.27,69.019-94.837,39.846-125.067
				c-55.369-57.376-101.238-23.94-133.704,5.33c-1.664,1.5-3.207,3.089-4.727,4.695c-15.947-13.786-33.11-26.268-51.38-37.339
				c0.934-2.064,1.841-4.149,2.626-6.318c8.25-22.795,6.298-46.565-3.372-65.787c-26.881,64.634-53.269,129.464-79.009,194.55
				c114.959,64.28,167.281,212.411,117.362,350.342c-42.302,116.884-145.718,192.326-255.075,197.938
				c-3.291,13.136-6.486,26.33-10.135,39.388c-9.901,35.436-21.799,70.413-33.723,105.349c10.286,0.657,20.567,0.905,30.822,0.718
				c0.141,2.209,0.31,4.417,0.628,6.634c6.213,43.27,37.088,76.881,111.867,63.618c41.367-7.337,43.097-52.278,36.884-95.549
				c-0.325-2.261-0.786-4.454-1.282-6.628c20.102-8.504,39.627-18.617,58.411-30.253c1.185,1.819,2.404,3.62,3.759,5.347
				c25.919,33.066,102.44,39.046,134.908,9.774c32.467-29.272,8.584-82.708-17.334-115.774c-1.328-1.694-2.746-3.256-4.18-4.793
				c13.797-17.675,26.429-36.578,37.789-56.585c1.897,0.889,3.816,1.748,5.82,2.47c38.68,14.001,82.324-8.604,97.483-50.486
				c15.157-41.88-3.91-87.183-42.59-101.181c-2.004-0.725-4.028-1.293-6.054-1.825c4.077-22.644,6.469-45.254,7.181-67.664
				C1574.056,963.043,1576.145,962.75,1578.25,962.299z"/>
			
				<linearGradient id="SVGID_00000157307043508426512890000018149904944527358367_" gradientUnits="userSpaceOnUse" x1="-513.617" y1="166.6836" x2="-496.057" y2="1584.6714" gradientTransform="matrix(0.9452 -0.3266 0.3266 0.9452 1503.7397 284.8328)">
				<stop  offset="0" style="stop-color:#FF9085"/>
				<stop  offset="1" style="stop-color:#FB6FBB"/>
			</linearGradient>
			<path style="fill:url(#SVGID_00000157307043508426512890000018149904944527358367_);" d="M1595.455,805.231
				c-2.147,0.463-4.238,1.067-6.312,1.705c-6.985-20.962-15.516-41.23-25.519-60.628c1.774-1.353,3.531-2.744,5.229-4.274
				c32.467-29.268,37.776-79.802,11.856-112.868c-25.917-33.065-73.248-36.139-105.716-6.869c-1.663,1.502-3.207,3.089-4.727,4.695
				c-15.945-13.787-33.108-26.267-51.378-37.339c0.934-2.064,1.841-4.151,2.626-6.319c15.159-41.882-3.909-87.183-42.59-101.182
				c-38.679-14-82.324,8.604-97.481,50.486c-0.786,2.17-1.424,4.354-2.027,6.537c-21.124-3.187-42.301-4.581-63.375-4.194
				c-0.14-2.209-0.31-4.415-0.627-6.633c-6.214-43.269-44.549-71.2-85.625-62.383c-41.077,8.818-69.341,51.045-63.129,94.312
				c0.326,2.262,0.789,4.455,1.284,6.63c-20.103,8.505-39.627,18.617-58.412,30.253c-1.184-1.819-2.403-3.62-3.758-5.35
				c-25.919-33.064-73.249-36.139-105.716-6.867c-32.469,29.273-37.777,79.805-11.858,112.869c1.328,1.694,2.746,3.258,4.181,4.793
				c-13.798,17.676-26.431,36.579-37.79,56.589c-1.897-0.889-3.814-1.749-5.82-2.473c-38.679-14-82.322,8.604-97.481,50.485
				c-15.159,41.883,3.91,87.185,42.59,101.182c2.003,0.727,4.028,1.295,6.053,1.826c-4.076,22.645-6.469,45.254-7.181,67.666
				c-2.085,0.263-4.176,0.555-6.279,1.005c-41.076,8.82-69.339,51.043-63.128,94.315c6.212,43.272,44.549,71.2,85.624,62.382
				c2.147-0.459,4.237-1.064,6.311-1.703c6.986,20.964,15.516,41.23,25.518,60.631c-1.772,1.353-3.532,2.742-5.226,4.271
				c-32.468,29.271-37.777,79.805-11.858,112.869c25.918,33.064,73.248,36.139,105.714,6.869c1.665-1.502,3.208-3.09,4.729-4.696
				c15.947,13.786,33.109,26.269,51.378,37.339c-0.931,2.065-1.841,4.151-2.626,6.32c-15.157,41.882,3.909,87.183,42.59,101.182
				c38.679,13.999,82.324-8.604,97.481-50.486c0.787-2.169,1.425-4.352,2.028-6.535c21.124,3.187,42.3,4.579,63.376,4.192
				c0.14,2.21,0.308,4.416,0.627,6.635c6.212,43.268,44.547,71.2,85.624,62.382c41.075-8.818,69.339-51.043,63.126-94.313
				c-0.324-2.261-0.787-4.455-1.284-6.63c20.103-8.503,39.63-18.616,58.413-30.252c1.183,1.816,2.403,3.62,3.759,5.346
				c25.918,33.064,73.247,36.142,105.714,6.87c32.47-29.271,37.777-79.803,11.859-112.871c-1.327-1.691-2.746-3.253-4.182-4.792
				c13.798-17.674,26.43-36.577,37.791-56.586c1.896,0.887,3.815,1.748,5.819,2.472c38.679,14,82.324-8.604,97.481-50.486
				c15.159-41.883-3.909-87.183-42.59-101.182c-2.004-0.725-4.027-1.293-6.053-1.825c4.077-22.643,6.469-45.254,7.181-67.666
				c2.087-0.262,4.175-0.555,6.28-1.007c41.077-8.819,69.338-51.041,63.127-94.313
				C1674.866,824.343,1636.53,796.413,1595.455,805.231z M1456.495,1062.439c-55.035,152.064-213.498,234.133-353.934,183.306
				c-140.437-50.829-209.669-215.304-154.632-367.369c55.037-152.065,213.498-234.133,353.934-183.304
				C1442.301,745.898,1511.532,910.374,1456.495,1062.439z"/>
		</g>
		<g>
			<g>
				<g>
					<defs>
						<path id="SVGID_00000138537166267120385350000014241613868617699238_" d="M2534.635,486.301
							c-31.62-22.063-77.627-31.717-115.812-31.288c-270.686,3.042-263.745,568.787-212.171,691.113s28.24,165.803-178.305,248.985
							c-206.544,83.182-94.464,201.468-62.543,273.404c31.921,71.935,88.213,130.292-60.251,216.572
							c-148.464,86.28-91.025,127.461-91.025,127.461s308.885,268.054,285.48,176.031s-6.466-235.267,248.125-266.957
							c109.658-13.65,273.854-79.985,301.488-200.874c6.435-28.15,9.037-70.554,0.095-98.407
							c-12.406-38.639-40.811-67.556-58.214-103.452c-40.556-83.653,38.158-153.822,81.704-215.538
							c22.734-32.22,45.393-65.213,61.875-101.174c34.22-74.661,12.928-149.97-36.125-212.173
							c-23.522-29.828-55.359-60.911-67.579-97.789c-13.126-39.616-9.116-95.544-10.202-137.32
							c-0.852-32.762-0.417-65.505-4.935-98.048C2607.837,596.314,2587.495,523.186,2534.635,486.301z"/>
					</defs>
					
						<linearGradient id="SVGID_00000029014099908206831530000005984272510660160438_" gradientUnits="userSpaceOnUse" x1="2362.1165" y1="331.7467" x2="2122.5415" y2="3818.8716">
						<stop  offset="0" style="stop-color:#FFC444"/>
						<stop  offset="0.9964" style="stop-color:#F36F56"/>
					</linearGradient>
					
						<use xlink:href="#SVGID_00000138537166267120385350000014241613868617699238_"  style="overflow:visible;fill:url(#SVGID_00000029014099908206831530000005984272510660160438_);"/>
					<clipPath id="SVGID_00000109752275343021734450000017260330396910967703_">
						<use xlink:href="#SVGID_00000138537166267120385350000014241613868617699238_"  style="overflow:visible;"/>
					</clipPath>
					<g style="opacity:0.8;clip-path:url(#SVGID_00000109752275343021734450000017260330396910967703_);">
						<g>
							<path style="fill:#FFFFFF;" d="M1805.559,2177.973c-1.787,0.814-3.946,0.204-5.024-1.503
								c-1.178-1.864-0.623-4.331,1.242-5.508c1.144-0.724,115.919-73.677,241.199-188.591
								c115.436-105.885,263.668-270.07,314.287-450.937c42.277-151.059,71.907-397.473,81.294-676.059
								c8.416-249.81-2.078-433.193-17.086-466.164c-0.914-2.008-0.028-4.375,1.98-5.288c2.008-0.914,4.375-0.028,5.288,1.98
								c17.555,38.568,25.374,244.904,17.798,469.741c-9.407,279.196-39.144,526.295-81.584,677.941
								c-51.139,182.721-200.442,348.158-316.685,454.767c-125.796,115.369-241.077,188.633-242.226,189.359
								C1805.885,2177.812,1805.723,2177.898,1805.559,2177.973z"/>
						</g>
						<g>
							<path style="fill:#FFFFFF;" d="M2442.057,903.381c-1.997,0.909-4.14,0.507-5.063-1.486
								c-1.223-2.639-123.713-264.308-258.092-314.621c-2.065-0.772-3.06-2.957-2.286-5.021c0.773-2.066,3.1-3.054,5.166-2.28
								c137.451,51.46,257.397,307.638,262.446,318.537c0.926,2-0.139,3.946-2.146,4.86
								C2442.073,903.374,2442.064,903.378,2442.057,903.381z"/>
						</g>
						<g>
							<path style="fill:#FFFFFF;" d="M2418.85,1220.41c-1.49,0.678-3.31,0.39-4.518-0.853c-1.537-1.581-1.501-4.11,0.08-5.646
								c0.685-0.666,69.571-67.327,156.532-125.66c117.499-78.815,210.294-105.744,275.813-80.041
								c2.053,0.805,3.064,3.123,2.259,5.176c-0.808,2.053-3.123,3.064-5.176,2.259
								c-150.738-59.134-421.149,201.355-423.863,203.993C2419.64,1219.968,2419.257,1220.225,2418.85,1220.41z"/>
						</g>
						<g>
							<path style="fill:#FFFFFF;" d="M2149.83,1886.63c-0.39,0.178-0.816,0.294-1.267,0.338c-2.194,0.215-4.147-1.391-4.361-3.586
								c-0.114-1.154-11.674-116.794-45.938-236.821c-31.416-110.048-88.817-246.415-183.879-271.114
								c-2.135-0.555-3.415-2.734-2.86-4.869c0.553-2.135,2.735-3.417,4.869-2.86c79.267,20.596,143.051,113.71,189.578,276.755
								c34.448,120.711,46.064,236.974,46.177,238.135C2152.319,1884.35,2151.341,1885.942,2149.83,1886.63z"/>
						</g>
						<g>
							<path style="fill:#FFFFFF;" d="M2298.891,1686.029c-1.564,0.712-3.47,0.351-4.658-1.007c-1.452-1.66-1.284-4.182,0.376-5.634
								c12.033-10.524,296.062-257.589,415.686-246.051c2.196,0.212,3.804,2.163,3.592,4.357c-0.212,2.196-2.162,3.805-4.357,3.592
								c-116.238-11.209-406.742,241.558-409.663,244.112C2299.565,1685.662,2299.237,1685.871,2298.891,1686.029z"/>
						</g>
					</g>
				</g>
			</g>
			<g>
				<g>
					<defs>
						<path id="SVGID_00000085971063763529870920000003234525540377146291_" d="M2978.805,784.257
							c-22.112-37.36-64.757-68.713-104.088-86.086c-278.814-123.148-535.601,459.857-539.81,609.272
							c-4.209,149.415-48.402,183.086-298.866,171.983s-190.783,162.397-191.627,251.006
							c-0.844,88.608,29.622,174.669-162.767,193.835c-192.39,19.166-152.737,88.16-152.737,88.16s191.503,418.782,210.443,313.56
							s103.117-244.114,378.801-157.831c118.743,37.163,317.951,45.775,402.66-65.219c19.726-25.846,42.172-68.087,46-100.802
							c5.311-45.383-10.309-88.267-11.399-133.171c-2.54-104.644,110.855-139.835,184.27-182.768
							c38.327-22.414,76.937-45.655,110.603-74.819c69.895-60.549,83.204-147.657,61.951-234.283
							c-10.191-41.539-28.318-88.243-23.639-131.736c5.028-46.72,35.226-102.165,53.6-145.482
							c14.409-33.971,30.129-67.323,40.679-102.78C3002.504,931.143,3015.77,846.713,2978.805,784.257z"/>
					</defs>
					
						<linearGradient id="SVGID_00000160887063552360242150000014974250752409614466_" gradientUnits="userSpaceOnUse" x1="1525.5313" y1="1512.0822" x2="3002.2004" y2="1512.0822">
						<stop  offset="0" style="stop-color:#AA80F9"/>
						<stop  offset="0.9964" style="stop-color:#6165D7"/>
					</linearGradient>
					
						<use xlink:href="#SVGID_00000085971063763529870920000003234525540377146291_"  style="overflow:visible;fill:url(#SVGID_00000160887063552360242150000014974250752409614466_);"/>
					<clipPath id="SVGID_00000039836052108022073800000000911074502761682619_">
						<use xlink:href="#SVGID_00000085971063763529870920000003234525540377146291_"  style="overflow:visible;"/>
					</clipPath>
					<g style="opacity:0.8;clip-path:url(#SVGID_00000039836052108022073800000000911074502761682619_);">
						<g>
							<path style="fill:#FFFFFF;" d="M1442.555,2177.769c-2.211,0-4.139-1.632-4.448-3.884c-0.338-2.46,1.382-4.729,3.842-5.065
								c1.51-0.208,153.159-21.431,335.148-80.755c167.689-54.662,396.181-153.772,532.422-315.509
								c113.789-135.082,259.096-373.782,398.666-654.894c125.153-252.076,199.939-444.899,199.939-485.688
								c0-2.483,2.012-4.496,4.496-4.496c2.483,0,4.496,2.012,4.496,4.496c0,47.713-88.236,262.809-200.878,489.686
								c-139.875,281.728-285.612,521.08-399.841,656.688c-137.639,163.395-367.813,263.288-536.666,318.316
								c-182.729,59.549-335.042,80.854-336.559,81.062C1442.964,2177.756,1442.758,2177.769,1442.555,2177.769z"/>
						</g>
						<g>
							<path style="fill:#FFFFFF;" d="M2689.38,1166.56c-2.47,0-4.48-0.447-4.496-2.92c-0.022-3.275-3.489-328.084-117.73-442.327
								c-1.756-1.755-1.756-4.216,0-5.971c1.756-1.756,4.601-1.563,6.357,0.193c116.853,116.852,120.275,434.425,120.364,447.949
								c0.016,2.482-1.983,3.075-4.467,3.075C2689.399,1166.56,2689.389,1166.56,2689.38,1166.56z"/>
						</g>
						<g>
							<path style="fill:#FFFFFF;" d="M2517.715,1482.552c-1.844,0-3.574-1.144-4.232-2.981c-0.837-2.337,0.379-4.911,2.716-5.749
								c1.013-0.363,102.701-36.543,219.028-55.757c157.175-25.959,264.832-10.271,319.985,46.632
								c1.728,1.783,1.683,4.629-0.1,6.357c-1.785,1.727-4.629,1.683-6.357-0.099c-126.89-130.913-525.512,9.895-529.523,11.332
								C2518.731,1482.467,2518.219,1482.552,2517.715,1482.552z"/>
						</g>
						<g>
							<path style="fill:#FFFFFF;" d="M1931.26,2039.795c-0.483,0-0.973-0.079-1.456-0.244c-2.349-0.803-3.602-3.36-2.797-5.709
								c0.421-1.235,42.517-125.134,63.392-264.119c19.14-127.43,23.925-293.952-61.971-363.607
								c-1.929-1.564-2.224-4.395-0.66-6.324c1.563-1.93,4.396-2.226,6.324-0.66c71.624,58.081,93.555,183.256,65.181,372.045
								c-21.005,139.771-63.334,264.334-63.76,265.577C1934.875,2038.62,1933.129,2039.795,1931.26,2039.795z"/>
						</g>
						<g>
							<path style="fill:#FFFFFF;" d="M2177.589,1903.754c-1.935,0-3.72-1.259-4.304-3.205c-0.714-2.378,0.635-4.885,3.013-5.598
								c17.24-5.172,423.555-125.871,540.763-58.247c2.151,1.241,2.889,3.991,1.648,6.141c-1.241,2.151-3.991,2.89-6.141,1.648
								c-113.89-65.707-529.501,57.815-533.685,59.069C2178.451,1903.692,2178.016,1903.754,2177.589,1903.754z"/>
						</g>
					</g>
				</g>
			</g>
		</g>
		<g>
			<g>
				<g>
					<path style="fill:#97A6B7;" d="M1627.628,1300.495l-0.66-0.075c-10.668-1.203-20.437,5.74-21.803,15.508L1358.558,3077.52
						c-1.423,10.156,6.434,18.128,17.531,17.806l0.686-0.02c11.074-0.322,21.187-8.793,22.598-18.916l245.061-1756.091
						C1645.793,1310.559,1638.277,1301.695,1627.628,1300.495z"/>
					<path style="fill:#97A6B7;" d="M2415.219,2927.303l-215.715-1614.612c-1.241-9.297-10.132-15.839-19.866-14.607l-0.603,0.077
						c-9.754,1.234-16.66,9.796-15.409,19.121l216.991,1619.256c1.204,8.99,9.81,14.23,19.21,11.708l0.581-0.156
						C2409.792,2945.572,2416.415,2936.268,2415.219,2927.303z"/>
					<path style="fill:#97A6B7;" d="M1726.553,2791.05l73.756-1626.996c0.424-9.368,8.709-16.645,18.515-16.249l0.608,0.025
						c9.825,0.396,17.454,8.336,17.023,17.734l-74.622,1631.731c-0.413,9.059-8.529,15.015-18.114,13.305l-0.593-0.106
						C1733.557,2808.786,1726.145,2800.083,1726.553,2791.05z"/>
				</g>
				<g>
					<polygon style="fill:#BFC8D6;" points="2633.12,785.571 2633.12,2311.581 2053.25,2357.347 1068.27,2435.136 1068.27,730.815 
						1241.519,736.846 					"/>
					<polygon style="fill:#FFFFFF;" points="2636.562,778.48 2636.562,2304.49 2056.691,2350.256 1071.712,2428.045 
						1071.712,723.724 1244.961,729.755 					"/>
					<g>
						<path style="fill:#BFC8D6;" d="M2657.881,760.578v29.924c0,7.979-7.813,14.195-17.025,13.858l-6.069-0.187l-1357.18-45.093
							l-204.624-6.779l-1.261-0.038c-11.504-0.373-21.329-7.902-21.329-16.815V701.89c0-8.915,9.46-15.767,20.966-15.356
							l106.569,4.007l1462.823,55.018C2649.963,745.897,2657.881,752.638,2657.881,760.578z"/>
						<path style="fill:#BFC8D6;" d="M2657.881,2284.115v29.924c0,7.977-7.813,15.02-17.025,15.768l-515.374,41.834l-1053.577,85.58
							c-11.504,0.936-21.513-5.543-21.513-14.456v-33.558c0-8.913,9.46-16.854,20.966-17.715l1.292-0.075l911.276-70.037
							l650.319-49.961l6.585-0.411C2650.042,2270.296,2657.881,2276.175,2657.881,2284.115z"/>
					</g>
				</g>
				<path style="opacity:0.5;fill:#D8DEE8;" d="M2124.992,2371.641l-1053.332,85.58c-11.504,0.936-21.268-5.543-21.268-14.456
					v-33.558c0-8.913,8.886-16.854,20.392-17.715l0.928-0.075V752.301l-0.626-0.038c-11.504-0.373-20.694-7.902-20.694-16.815
					V701.89c0-8.915,9.46-15.767,20.966-15.356l106.569,4.007c22.839,10.413,45.479,23.258,66.37,39.214
					c11.548,8.802,22.674,18.538,33.012,29.326c41.002,42.846,70.397,102.02,73.599,183.741
					c9.992,255.128-35.324,307.3,38.854,374.677c10.078,9.14,22.368,18.54,37.291,28.764c4.325,2.959,8.827,5.993,13.585,9.102
					c65.137,42.584,159.214,78.687,234.13,143.068c64.489,55.431,114.795,131.759,120.286,251.196
					c2.12,45.616-2.291,97.563-14.965,157.001c-3.502,16.367-6.184,32.135-8.131,47.341c-3.373,26.515-4.454,51.347-3.546,74.567
					c0.735,17.79,2.596,34.607,5.58,50.599c4.627,25.092,11.937,48.052,21.409,69.099c8.608,19.101,18.989,36.591,30.883,52.659
					c40.096,54.231,96.931,92.32,157.745,120.485c23.658,11.013,47.967,20.488,72.103,28.876
					C2079.445,2358.309,2102.631,2365.35,2124.992,2371.641z"/>
			</g>
			<g>
				<path style="fill:#B7C0CE;" d="M2054.628,884.77c0-7.389-5.387-13.586-12.399-13.842l-312.394-11.455
					c-7.376-0.269-12.442,5.648-12.442,13.238v625.157c0,7.589,4.99,13.661,12.366,13.556l312.968-4.461
					c7.012-0.1,11.901-6.168,11.901-13.557V884.77z"/>
				<path style="fill:#FFFFFF;" d="M1948.441,1068.187c0,35.002-27.176,62.953-60.861,62.427
					c-33.865-0.528-61.45-29.608-61.45-64.949c0-35.341,27.586-63.283,61.45-62.415
					C1921.265,1004.113,1948.441,1033.184,1948.441,1068.187z"/>
				<g>
					<polygon style="fill:#FFFFFF;" points="2020.217,1213.205 1748.364,1210.666 1748.364,1167.739 2020.217,1171.199 					"/>
					<polygon style="fill:#FFFFFF;" points="2020.217,1297.216 1748.364,1296.52 1748.364,1253.593 2020.217,1255.211 					"/>
				</g>
				<path style="fill:#B7C0CE;" d="M2054.628,1621.408c0-7.389-5.388-13.252-12.4-13.096l-312.614,6.996
					c-7.376,0.165-12.221,6.447-12.221,14.036v625.157c0,7.589,4.99,13.305,12.366,12.766l312.968-22.918
					c7.012-0.512,11.901-6.917,11.901-14.306V1621.408z"/>
				<g>
					<polygon style="fill:#FFFFFF;" points="1975.481,1978.714 1793.099,1988.003 1793.099,1955.929 1975.481,1947.092 					"/>
					<polygon style="fill:#FFFFFF;" points="1975.481,2041.958 1793.099,2052.151 1793.099,2020.077 1975.481,2010.336 					"/>
					<polygon style="fill:#FFFFFF;" points="1975.481,2105.202 1793.099,2116.3 1793.099,2084.225 1975.481,2073.58 					"/>
				</g>
				<g>
					<polygon style="fill:#FFFFFF;" points="2027.099,1905.994 1744.923,1919.121 1744.923,1686.537 2027.099,1678.584 					"/>
					<g>
						<g>
							<polygon style="fill:#B7C0CE;" points="2029.725,1911.611 1738.945,1693.326 1742.178,1683.389 2032.814,1901.844 							"/>
						</g>
						<g>
							<polygon style="fill:#B7C0CE;" points="1742.178,1924.969 1738.945,1915.271 2029.725,1675.442 2032.814,1684.979 							"/>
						</g>
					</g>
				</g>
				<polygon style="fill:#FFFFFF;" points="2027.099,2178.886 1744.923,2198.222 1744.923,2166.018 2027.099,2147.398 				"/>
				<g>
					<path style="fill:#B7C0CE;" d="M1572.864,867.706c0-7.673-5.169-14.098-12.73-14.374l-339.854-12.365
						c-7.969-0.291-15.622,5.868-15.622,13.757v649.835c0,7.889,7.874,14.192,15.843,14.079l338.673-4.823
						c7.561-0.108,13.689-6.42,13.689-14.093V867.706z"/>
					<path style="fill:#FFFFFF;" d="M1460.913,1164.182c0,36.353-29.317,65.603-65.662,65.329
						c-36.547-0.275-66.323-30.265-66.323-66.984c0-36.719,29.776-65.963,66.323-65.321
						C1431.596,1097.844,1460.913,1127.829,1460.913,1164.182z"/>
					<path style="fill:#B7C0CE;" d="M1572.864,1632.643c0-7.673-5.425-13.752-12.986-13.583l-339.728,7.558
						c-7.969,0.178-15.492,6.72-15.492,14.609v649.835c0,7.889,7.874,13.812,15.843,13.23l338.673-24.738
						c7.561-0.552,13.689-7.219,13.689-14.892V1632.643z"/>
					<g>
						<polygon style="fill:#FFFFFF;" points="1387.041,1825.233 1228.747,1830.942 1228.747,1697.011 1387.041,1692.836 						"/>
						<g>
							<g>
								<polygon style="fill:#B7C0CE;" points="1387.167,1828.867 1235.033,1699.429 1236.706,1693.639 1388.802,1823.127 								
									"/>
							</g>
							<g>
								<polygon style="fill:#B7C0CE;" points="1236.706,1834.573 1235.033,1828.892 1387.167,1689.522 1388.802,1695.156 								
									"/>
							</g>
						</g>
						<polygon style="fill:#FFFFFF;" points="1545.335,1819.093 1404.247,1824.672 1404.247,1692.42 1545.335,1688.334 						"/>
						<g>
							<g>
								<polygon style="fill:#B7C0CE;" points="1550.158,1822.687 1401.781,1694.795 1403.413,1689.078 1551.753,1817.018 								
									"/>
							</g>
							<g>
								<polygon style="fill:#B7C0CE;" points="1403.413,1828.251 1401.781,1822.64 1550.158,1685.063 1551.753,1690.628 								
									"/>
							</g>
						</g>
					</g>
					<g>
						<polygon style="fill:#FFFFFF;" points="1387.041,1994.406 1228.747,2002.076 1228.747,1868.145 1387.041,1862.01 						"/>
						<g>
							<g>
								<polygon style="fill:#B7C0CE;" points="1387.167,1998.028 1235.033,1870.54 1236.706,1864.729 1388.802,1992.267 								
									"/>
							</g>
							<g>
								<polygon style="fill:#B7C0CE;" points="1236.706,2005.663 1235.033,2000.003 1387.167,1858.683 1388.802,1864.296 								
									"/>
							</g>
						</g>
						<polygon style="fill:#FFFFFF;" points="1545.335,1986.174 1404.247,1993.661 1404.247,1861.408 1545.335,1855.415 						"/>
						<g>
							<g>
								<polygon style="fill:#B7C0CE;" points="1550.158,1989.757 1401.781,1863.768 1403.413,1858.03 1551.753,1984.068 								
									"/>
							</g>
							<g>
								<polygon style="fill:#B7C0CE;" points="1403.413,1997.203 1401.781,1991.614 1550.158,1852.134 1551.753,1857.678 								
									"/>
							</g>
						</g>
					</g>
					<g>
						<polygon style="fill:#FFFFFF;" points="1387.041,2163.58 1228.747,2173.21 1228.747,2039.279 1387.041,2031.183 						"/>
						<g>
							<g>
								<polygon style="fill:#B7C0CE;" points="1387.167,2167.188 1235.033,2041.652 1236.706,2035.818 1388.802,2161.406 								
									"/>
							</g>
							<g>
								<polygon style="fill:#B7C0CE;" points="1236.706,2176.753 1235.033,2171.115 1387.167,2027.843 1388.802,2033.435 								
									"/>
							</g>
						</g>
						<polygon style="fill:#FFFFFF;" points="1545.335,2153.255 1404.247,2162.649 1404.247,2030.397 1545.335,2022.496 						"/>
						<g>
							<g>
								<polygon style="fill:#B7C0CE;" points="1550.158,2156.827 1401.781,2032.741 1403.413,2026.982 1551.753,2151.118 								
									"/>
							</g>
							<g>
								<polygon style="fill:#B7C0CE;" points="1403.413,2166.156 1401.781,2160.587 1550.158,2019.204 1551.753,2024.728 								
									"/>
							</g>
						</g>
					</g>
					<polygon style="fill:#FFFFFF;" points="1545.335,2211.37 1228.747,2232.735 1228.747,2199.252 1545.335,2178.68 					"/>
				</g>
				<g>
					<path style="fill:#B7C0CE;" d="M2495.098,1611.038c0-7.127-3.445-12.787-9.969-12.641l-291.207,6.507
						c-6.85,0.153-11.971,6.206-11.971,13.52v602.429c0,7.313,6.041,12.836,12.891,12.336l290.046-21.303
						c6.524-0.477,10.21-6.64,10.21-13.768V1611.038z"/>
					<path style="fill:#B7C0CE;" d="M2495.098,900.491c0-7.127-3.445-13.098-9.969-13.336l-291.235-10.648
						c-6.85-0.25-11.944,5.478-11.944,12.791v602.429c0,7.313,6.041,13.163,12.891,13.065l290.046-4.149
						c6.524-0.093,10.21-5.946,10.21-13.073V900.491z"/>
					<polygon style="fill:#FFFFFF;" points="2409.069,1053.954 2274.863,1050.874 2274.863,1013.139 2409.069,1016.636 					"/>
					<polygon style="fill:#FFFFFF;" points="2471.01,1244.387 2209.481,1242.551 2209.481,1097.724 2471.01,1102.631 					"/>
					<polygon style="fill:#FFFFFF;" points="2471.01,1433.395 2209.481,1435.655 2209.481,1290.827 2471.01,1291.639 					"/>
					<polygon style="fill:#FFFFFF;" points="2395.304,1053.648 2292.069,1051.257 2292.069,1013.572 2395.304,1016.291 					"/>
					<g>
						<g>
							<polygon style="fill:#B7C0CE;" points="2472.705,1247.373 2210.563,1100.803 2213.474,1094.705 2475.494,1241.371 							"/>
						</g>
						<g>
							<polygon style="fill:#B7C0CE;" points="2213.474,1245.633 2210.563,1239.461 2472.705,1099.609 2475.494,1105.683 							"/>
						</g>
					</g>
					<g>
						<g>
							<polygon style="fill:#B7C0CE;" points="2472.705,1436.361 2210.563,1293.883 2213.474,1287.74 2475.494,1430.316 							"/>
						</g>
						<g>
							<polygon style="fill:#B7C0CE;" points="2213.474,1438.668 2210.563,1432.541 2472.705,1288.598 2475.494,1294.628 							"/>
						</g>
					</g>
					<polygon style="fill:#FFFFFF;" points="2474.451,2148.718 2209.481,2166.689 2209.481,2135.654 2474.451,2118.349 					"/>
					<g>
						<polygon style="fill:#FFFFFF;" points="2464.128,1845.422 2219.805,1856.072 2219.805,1649.284 2464.128,1642.808 						"/>
						<g>
							<g>
								<polygon style="fill:#B7C0CE;" points="2443.481,1761.646 2343.687,1765.342 2343.687,1666.424 2443.481,1663.562 								
									"/>
								<g>
									<g>
										<polygon style="fill:#FFFFFF;" points="2453.175,1764.782 2343.774,1667.646 2344.974,1663.319 2454.354,1760.484 
																					"/>
									</g>
									<g>
										<polygon style="fill:#FFFFFF;" points="2344.974,1768.674 2343.774,1764.423 2453.175,1660.359 2454.354,1664.582 
																					"/>
									</g>
								</g>
							</g>
							<g>
								<polygon style="fill:#B7C0CE;" points="2316.157,1684.282 2233.569,1686.685 2233.569,1669.474 2316.157,1667.187 								
									"/>
								<polygon style="fill:#B7C0CE;" points="2316.157,1718.473 2233.569,1721.107 2233.569,1703.896 2316.157,1701.377 								
									"/>
							</g>
						</g>
						<polygon style="fill:#B7C0CE;" points="2446.922,1795.351 2237.01,1803.598 2237.01,1786.392 2446.922,1778.445 						"/>
						<polygon style="fill:#B7C0CE;" points="2446.922,1829.165 2237.01,1838.011 2237.01,1820.805 2446.922,1812.258 						"/>
					</g>
					<g>
						<polygon style="fill:#FFFFFF;" points="2464.128,2085.182 2219.805,2100.77 2219.805,1893.983 2464.128,1882.568 						"/>
						<g>
							<g>
								<polygon style="fill:#B7C0CE;" points="2443.481,2001.782 2343.687,2007.52 2343.687,1908.602 2443.481,1903.698 								
									"/>
								<g>
									<g>
										<polygon style="fill:#FFFFFF;" points="2453.175,2004.779 2343.774,1909.808 2344.974,1905.457 2454.354,2000.458 
																					"/>
									</g>
									<g>
										<polygon style="fill:#FFFFFF;" points="2344.974,2010.812 2343.774,2006.585 2453.175,1900.356 2454.354,1904.556 
																					"/>
									</g>
								</g>
							</g>
							<g>
								<polygon style="fill:#B7C0CE;" points="2316.157,1927.033 2233.569,1931.082 2233.569,1913.871 2316.157,1909.938 								
									"/>
								<polygon style="fill:#B7C0CE;" points="2316.157,1961.223 2233.569,1965.504 2233.569,1948.293 2316.157,1944.128 								
									"/>
							</g>
						</g>
						<polygon style="fill:#B7C0CE;" points="2446.922,2035.425 2237.01,2047.931 2237.01,2030.724 2446.922,2018.518 						"/>
						<polygon style="fill:#B7C0CE;" points="2446.922,2069.238 2237.01,2082.344 2237.01,2065.137 2446.922,2052.331 						"/>
					</g>
				</g>
			</g>
		</g>
		<g>
			<g>
				
					<linearGradient id="SVGID_00000173139408205743894020000000699598936796422789_" gradientUnits="userSpaceOnUse" x1="2297.1736" y1="1112.2135" x2="1782.2291" y2="1730.1462">
					<stop  offset="0" style="stop-color:#311944"/>
					<stop  offset="1" style="stop-color:#A03976"/>
				</linearGradient>
				<polygon style="fill:url(#SVGID_00000173139408205743894020000000699598936796422789_);" points="1795.736,1612.779 
					2316.746,1185.295 2319.468,1186.619 1802.562,1624.5 				"/>
				
					<linearGradient id="SVGID_00000070118175904509520190000006037616697357354626_" gradientUnits="userSpaceOnUse" x1="1869.4113" y1="1556.5398" x2="1610.5475" y2="1793.1354">
					<stop  offset="0" style="stop-color:#FFC444"/>
					<stop  offset="0.9964" style="stop-color:#F36F56"/>
				</linearGradient>
				<path style="fill:url(#SVGID_00000070118175904509520190000006037616697357354626_);" d="M1763.909,1641.204l20.398-22.278
					l10.618-24.564c1.834-4.243,4.755-7.928,8.469-10.682l6.095-4.522c3.496-2.593,7.734-3.993,12.086-3.993h20.001
					c0,0-3.485,6.521-9.16,7.517c-5.677,0.997-17.543,14.393-17.543,14.393l-1.613,15.704l22.693-16.565l24.189-27.8v15.434
					c0,5.278-1.9,10.38-5.351,14.374l-19.622,22.706c-4.844,5.606-11.511,9.325-18.827,10.503l-4.839,0.778
					c-10.067,1.62-19.024,7.304-24.779,15.719l-13.798,20.184L1763.909,1641.204z"/>
			</g>
			
				<linearGradient id="SVGID_00000182510653943990932180000011941912166756148397_" gradientUnits="userSpaceOnUse" x1="609.7211" y1="2573.9666" x2="670.9575" y2="2164.7954">
				<stop  offset="0" style="stop-color:#FFC444"/>
				<stop  offset="0.9964" style="stop-color:#F36F56"/>
			</linearGradient>
			<path style="fill:url(#SVGID_00000182510653943990932180000011941912166756148397_);" d="M662.821,2381.406
				c0,0-5.654,26.589-10.577,48.985c-4.922,22.395-24.613,39.571-33.229,57.443c-8.614,17.873-12.484-3.049-14.856-15.972
				c-2.373-12.922,0-39.603,10.661-48.735c10.662-9.134,18.766-17.107,18.249-18.953c-0.517-1.846,6.847-32.614,6.847-32.614
				L662.821,2381.406z"/>
			<g>
				
					<linearGradient id="SVGID_00000009588959425555596450000017298422569374129319_" gradientUnits="userSpaceOnUse" x1="943.3555" y1="3289.1333" x2="893.2529" y2="2994.084">
					<stop  offset="0" style="stop-color:#AA80F9"/>
					<stop  offset="0.9964" style="stop-color:#6165D7"/>
				</linearGradient>
				<path style="fill:url(#SVGID_00000009588959425555596450000017298422569374129319_);" d="M899.166,3180.757
					c-1.343-5.539-0.442-12.949,4.387-17.919c6.51-6.698,17.409-6.132,24.251-3.033c3.987,1.804,7.088,4.691,18.042,27.535
					c11.579,24.143,11.528,28.036,9.665,30.238c-3.788,4.479-14.411,1.174-16.7,0.462c-7.612-2.365-9.471-5.975-25.152-20.659
					C903.029,3187.427,900.391,3185.813,899.166,3180.757z"/>
				
					<linearGradient id="SVGID_00000005989363366113585270000008568326052616867500_" gradientUnits="userSpaceOnUse" x1="913.7548" y1="3174.6016" x2="930.4558" y2="3000.1685">
					<stop  offset="0" style="stop-color:#FFC444"/>
					<stop  offset="0.9964" style="stop-color:#F36F56"/>
				</linearGradient>
				<path style="fill:url(#SVGID_00000005989363366113585270000008568326052616867500_);" d="M906.57,3143.02l2.653,27.984
					c6.373,3.314,10.33,3.047,12.414,0l5.349-27.984H906.57z"/>
				
					<linearGradient id="SVGID_00000132803668535115210020000007970385387595904935_" gradientUnits="userSpaceOnUse" x1="1216.799" y1="3242.698" x2="1166.6973" y2="2947.6533">
					<stop  offset="0" style="stop-color:#AA80F9"/>
					<stop  offset="0.9964" style="stop-color:#6165D7"/>
				</linearGradient>
				<path style="fill:url(#SVGID_00000132803668535115210020000007970385387595904935_);" d="M1174.157,3177.261
					c-3.746-4.297-6.36-11.289-4.365-17.925c2.689-8.943,12.622-13.465,20.122-13.869c4.37-0.236,8.453,0.897,28.704,16.12
					c21.402,16.09,23.152,19.568,22.514,22.381c-1.297,5.72-12.248,7.683-14.609,8.106c-7.844,1.41-11.16-0.936-31.842-6.741
					C1180.66,3181.4,1177.574,3181.184,1174.157,3177.261z"/>
				
					<linearGradient id="SVGID_00000070832730712654530510000007136095094394827956_" gradientUnits="userSpaceOnUse" x1="1179.5673" y1="3200.0503" x2="1196.2677" y2="3025.6238">
					<stop  offset="0" style="stop-color:#FFC444"/>
					<stop  offset="0.9964" style="stop-color:#F36F56"/>
				</linearGradient>
				<path style="fill:url(#SVGID_00000070832730712654530510000007136095094394827956_);" d="M1176.015,3130.528l2.654,27.983
					c6.373,3.314,10.33,3.046,12.414,0l5.349-27.983H1176.015z"/>
				
					<linearGradient id="SVGID_00000052794598159975205550000009858103871463145142_" gradientUnits="userSpaceOnUse" x1="963.8266" y1="3151.833" x2="1223.6172" y2="2175.7632">
					<stop  offset="0" style="stop-color:#444B8C"/>
					<stop  offset="0.9964" style="stop-color:#26264F"/>
				</linearGradient>
				<path style="fill:url(#SVGID_00000052794598159975205550000009858103871463145142_);" d="M899.409,3148.497
					c10.068,0.609,20.136,1.212,30.205,1.821c21.319-103.99,44.727-210.424,70.434-319.115
					c28.176-119.131,57.616-234.617,87.955-346.364c9.617,42.535,19.134,92.284,26.631,148.209
					c11.128,83.009,13.38,146.611,13.918,164.225c2.746,90.044-5.103,100.679-1.392,156.896
					c2.918,44.199,12.49,109.138,44.536,188.011c9.597-0.587,19.196-1.164,28.794-1.746
					c21.007-101.618,39.009-225.108,44.096-366.157c6.237-172.971-8.734-322.845-28.354-441.045
					c-87.216,2.707-174.432,5.422-261.646,8.129c-27.225,60.784-39.628,112.762-45.915,149.312
					c-12.634,73.453-4.886,109.697-14.394,234.84c-4.914,64.673-8.5,74.93-12.061,117.884
					C876.313,2914.527,875.287,3017.26,899.409,3148.497z"/>
				
					<linearGradient id="SVGID_00000022553336713522638720000017705047418464628645_" gradientUnits="userSpaceOnUse" x1="878.2869" y1="3129.0659" x2="1138.0775" y2="2152.9958">
					<stop  offset="0" style="stop-color:#444B8C"/>
					<stop  offset="0.9964" style="stop-color:#26264F"/>
				</linearGradient>
				<path style="opacity:0.3;fill:url(#SVGID_00000022553336713522638720000017705047418464628645_);" d="M957.367,2900.262
					c7.957-84.564-22.554-82.82-8.349-155.875c13.07-67.217,40.788-78.416,61.236-164.226
					c16.411-68.874,3.876-83.982,16.701-114.122c15.845-37.24,62.127-77.893,195.162-95.165
					c-1.906-12.852-3.862-25.453-5.885-37.642c-87.216,2.707-174.431,5.422-261.646,8.129
					c-27.225,60.784-39.628,112.762-45.915,149.312c-12.634,73.453-4.886,109.697-14.394,234.84
					c-4.914,64.673-8.498,74.93-12.061,117.884c-5.902,71.131-6.927,173.864,17.194,305.101c10.068,0.609,20.137,1.212,30.205,1.821
					c0.62-3.023,1.282-6.095,1.907-9.122c-5.083-8.243-9.705-17.501-13.122-27.999
					C896.315,3045.35,947.424,3005.948,957.367,2900.262z"/>
			</g>
			<g>
				
					<linearGradient id="SVGID_00000005963847886424890170000004728465072596532643_" gradientUnits="userSpaceOnUse" x1="1437.0636" y1="1536.8229" x2="858.1014" y2="2302.2786">
					<stop  offset="0" style="stop-color:#AA80F9"/>
					<stop  offset="0.9964" style="stop-color:#6165D7"/>
				</linearGradient>
				<path style="fill:url(#SVGID_00000005963847886424890170000004728465072596532643_);" d="M627.526,2386.712
					c12.989,2.321,25.979,4.637,38.968,6.958c8.023-24.301,19.666-60.938,32.211-106.048c14.343-51.582,21.707-84.918,24.85-97.145
					c12.502-48.646,49.061-116.901,156.81-199.986c-1.071,52.858-1.9,96.345-2.458,126.223
					c-4.481,239.721-4.223,283.235,27.619,307.139c27.688,20.783,42.98-0.489,168.751,1.903
					c114.703,2.18,138.846,20.572,167.974-0.489c47.269-34.18,28.909-115.324,29.649-216.698
					c0.611-83.657,14.382-202.036,75.154-346.542c44.744,4.344,119.569,5.529,204.585-23.66
					c132.035-45.329,207.064-135.89,235.204-173.967c-9.278-12.525-18.556-25.051-27.835-37.577
					c-47.477,20.724-120.854,48.08-213.495,63.22c-160.596,26.242-234.429-7.871-383.56-1.984
					c-85.891,3.393-261.316,10.318-379.945,100.206C563.85,1953.561,619.7,2337.337,627.526,2386.712z"/>
				
					<linearGradient id="SVGID_00000021097686044962950630000015281223276197668249_" gradientUnits="userSpaceOnUse" x1="1452.7141" y1="1548.6594" x2="873.7507" y2="2314.1169">
					<stop  offset="0" style="stop-color:#AA80F9"/>
					<stop  offset="0.9964" style="stop-color:#6165D7"/>
				</linearGradient>
				<path style="opacity:0.3;fill:url(#SVGID_00000021097686044962950630000015281223276197668249_);" d="M1043.656,2358.877
					c-6.64-37.028,13.303-52.621,2.783-94.639c-14.844-59.294-62.446-59.752-73.763-109.946
					c-10.79-47.869,29.17-62.237,38.969-137.782c7.204-55.539-2.971-135.825-40.36-148.917
					c-46.515-16.282-114.878,78.536-122.474,89.072c-26.281,36.451-41.554,74.093-50.491,107.728
					c21.28-23.066,48.123-47.748,82.044-73.903c-1.071,52.858-1.899,96.345-2.458,126.223
					c-4.481,239.721-4.223,283.235,27.62,307.139c27.687,20.783,42.981-0.489,168.75,1.903c3.596,0.071,6.847,0.196,10.267,0.294
					C1057.373,2401.178,1047.064,2377.888,1043.656,2358.877z"/>
			</g>
			<g>
				
					<linearGradient id="SVGID_00000119077287911897589220000008958566615610806960_" gradientUnits="userSpaceOnUse" x1="-896.0681" y1="2343.8726" x2="-896.0681" y2="2132.3508" gradientTransform="matrix(-0.827 0.5622 0.5622 0.827 -938.6846 289.0357)">
					<stop  offset="0" style="stop-color:#FFC444"/>
					<stop  offset="0.9964" style="stop-color:#F36F56"/>
				</linearGradient>
				<path style="fill:url(#SVGID_00000119077287911897589220000008958566615610806960_);" d="M1113.525,1587.931
					c0,0-5.109,40.64-20.219,70.171c-13.654,26.686-75.225,39.219-87.917,44.402c-12.692,5.185,20.918,26.005,55.837,32.366
					c34.918,6.36,136.088,6.422,155.278-5.471c19.192-11.892-13.573-13.507-37.96-24.744c-24.387-11.237-34.977-61.54-28.755-83.489
					C1156.011,1599.217,1113.525,1587.931,1113.525,1587.931z"/>
				<g>
					
						<linearGradient id="SVGID_00000146465351435351810130000006740513810398962356_" gradientUnits="userSpaceOnUse" x1="-2919.594" y1="811.4766" x2="-2989.4749" y2="633.9924" gradientTransform="matrix(-0.995 0.0996 0.0996 0.995 -1895.803 1193.7489)">
						<stop  offset="0" style="stop-color:#444B8C"/>
						<stop  offset="0.9964" style="stop-color:#3E4177"/>
					</linearGradient>
					<path style="fill:url(#SVGID_00000146465351435351810130000006740513810398962356_);" d="M1178.489,1572.848
						c8.286-14.012,3.002-39.413-13.227-50.342c-12.042-8.11-25.846-5.375-35.904-3.383c-4.656,0.923-37.354,7.809-44.843,32.06
						c-2.379,7.708-1.395,17.9,2.089,25.787c1.796,4.062,5.139,9.057,12.492,18.541c6.525,8.415,6.1,8.14,8.095,10.582
						c4.785,5.865,13.944,15.678,30.361,26.752c0.645-4.5,1.743-10.094,3.755-16.241c0.774-2.365,3.908-11.616,9.229-19.549
						C1161.34,1580.952,1172.011,1583.804,1178.489,1572.848z"/>
					
						<linearGradient id="SVGID_00000141422201648307606030000005659905627991375271_" gradientUnits="userSpaceOnUse" x1="-1045.5844" y1="2363.1736" x2="-946.6907" y2="2170.8801" gradientTransform="matrix(-0.827 0.5622 0.5622 0.827 -938.6846 289.0357)">
						<stop  offset="0" style="stop-color:#FFC444"/>
						<stop  offset="0.9964" style="stop-color:#F36F56"/>
					</linearGradient>
					<path style="fill:url(#SVGID_00000141422201648307606030000005659905627991375271_);" d="M1116.747,1622.207
						c0,0,17.654,23.539,47.813,18.642c27.003-4.385,25.117-65.707,6.516-76.967c-6.205-3.758-17.975-4.431-27.15-0.881
						c-5.422,2.096-7.083,4.594-16.004,7.848c-8.228,3.001-10.704,2.294-13.044,4.684c-2.93,2.988-4.629,9.788,2.406,27.093
						c-5.689-4.754-12.106-6.167-16.314-3.661c-0.67,0.399-2.416,1.849-3.279,3.874
						C1094.559,1610.166,1101.77,1618.443,1116.747,1622.207z"/>
					
						<linearGradient id="SVGID_00000145034455567373583080000009639338277576602763_" gradientUnits="userSpaceOnUse" x1="3695.3521" y1="2372.2512" x2="3641.4365" y2="2235.3162" gradientTransform="matrix(0.827 -0.5622 0.5622 0.827 -3149.7031 1791.1674)">
						<stop  offset="0" style="stop-color:#444B8C"/>
						<stop  offset="0.9964" style="stop-color:#3E4177"/>
					</linearGradient>
					<path style="fill:url(#SVGID_00000145034455567373583080000009639338277576602763_);" d="M1110.617,1587.541
						c0,0,11.51,21.323,17.914,26.354c6.406,5.032,20.84,8.101,34.85,0.455c14.012-7.646,21.787-14.808,21.787-14.808
						s5.735,29.548,2.245,33.198c-3.489,3.654-29.324,19.471-36.748,18.351c-7.425-1.121-25.553-15.749-29.749-24.805
						c-4.196-9.054-9.249-32.565-9.249-32.565L1110.617,1587.541z"/>
				</g>
			</g>
		</g>
		<g>
			
				<linearGradient id="SVGID_00000152946594585670870760000003292758430698110133_" gradientUnits="userSpaceOnUse" x1="1830.7017" y1="1499.865" x2="1495.8279" y2="3105.4194" gradientTransform="matrix(-1 0 0 1 4299.5825 0)">
				<stop  offset="0" style="stop-color:#FF9085"/>
				<stop  offset="1" style="stop-color:#FB6FBB"/>
			</linearGradient>
			<path style="fill:url(#SVGID_00000152946594585670870760000003292758430698110133_);" d="M2394.132,1960.16
				c-29.134-31.106,51.52-147.966,94.688-199.172c37.713-44.734,76.475-90.715,124.074-84.893
				c41.791,5.111,82.457,49.184,84.893,91.423C2704.342,1881.151,2435.55,2004.381,2394.132,1960.16z"/>
			
				<linearGradient id="SVGID_00000084518341007787527960000006537173511368356002_" gradientUnits="userSpaceOnUse" x1="649.9429" y1="3195.2529" x2="750.2319" y2="3195.2529" gradientTransform="matrix(0.9996 0.0289 -0.0289 0.9996 2093.9072 -31.2392)">
				<stop  offset="0" style="stop-color:#444B8C"/>
				<stop  offset="0.9964" style="stop-color:#26264F"/>
			</linearGradient>
			<path style="fill:url(#SVGID_00000084518341007787527960000006537173511368356002_);" d="M2743.939,3161.003
				c5.484,4.458,6.493,15.59,7.151,22.867c0.297,3.25,0.443,4.877,0.08,6.024c-2.65,8.375-18.892,9.256-44.362,11.858
				c-40.25,4.112-52.228,7.28-55.378,1.291c-2.952-5.613,4.192-14.804,4.996-15.818c4.325-5.448,9.633-7.429,19.896-10.807
				c18.99-6.25,31.82-9.673,35.705-10.709C2736.285,3159.233,2740.337,3158.076,2743.939,3161.003z"/>
			
				<linearGradient id="SVGID_00000121263509416847420770000013545260448157991346_" gradientUnits="userSpaceOnUse" x1="2715.9741" y1="3149.8716" x2="2751.9287" y2="3149.8716">
				<stop  offset="0" style="stop-color:#FFC444"/>
				<stop  offset="0.9964" style="stop-color:#F36F56"/>
			</linearGradient>
			<path style="fill:url(#SVGID_00000121263509416847420770000013545260448157991346_);" d="M2720.002,3124.232l-4.028,45.867
				c1.144,2.215,14.776,8.858,25.605,3.161l10.349-45.085L2720.002,3124.232z"/>
			
				<linearGradient id="SVGID_00000141455642405375002880000009677639050588024219_" gradientUnits="userSpaceOnUse" x1="1129.1862" y1="3280.9412" x2="1235.7368" y2="3280.9412" gradientTransform="matrix(0.9642 0.2651 -0.2651 0.9642 2106.7324 -308.9189)">
				<stop  offset="0" style="stop-color:#444B8C"/>
				<stop  offset="0.9964" style="stop-color:#26264F"/>
			</linearGradient>
			<path style="fill:url(#SVGID_00000141455642405375002880000009677639050588024219_);" d="M2424.73,3155.108
				c6.573,7.259,8.071,20.625,2.356,27.21c-5.618,6.474-14.067,1.618-38.026,2.333c-25.665,0.768-32.366,6.829-49.806,2.017
				c-7.046-1.948-19.49-6.672-19.254-11.703c0.166-3.538,6.501-5.365,27.661-12.455c30.035-10.061,29.903-10.611,36.281-11.667
				C2399.962,3148.19,2416.049,3145.524,2424.73,3155.108z"/>
			
				<linearGradient id="SVGID_00000104688831990657952360000015144485282230864556_" gradientUnits="userSpaceOnUse" x1="2395.4138" y1="3138.0012" x2="2439.8208" y2="3138.0012">
				<stop  offset="0" style="stop-color:#FFC444"/>
				<stop  offset="0.9964" style="stop-color:#F36F56"/>
			</linearGradient>
			<path style="fill:url(#SVGID_00000104688831990657952360000015144485282230864556_);" d="M2408.286,3113.249l-12.873,42.818
				c0.973,2.297,14.059,9.958,25.289,5.105l19.118-41.56L2408.286,3113.249z"/>
			<path style="fill:#26264F;" d="M2522.659,2175.459c-1.844,143.903-11.664,305.704-35.226,481.492
				c-23.286,173.739-55.921,330.721-91.52,468.764c16.424,4.419,32.847,8.837,49.27,13.256
				c41.667-38.852,94.229-100.012,119.592-186.44c15.741-53.643,10.495-81.208,20.48-147.188
				c15.898-105.054,48.101-160.093,81.385-244.809c29.909-76.125,65.264-187.846,84.219-337.182
				C2674.793,2207.388,2598.725,2191.423,2522.659,2175.459z"/>
			<path style="fill:#26264F;" d="M2670.909,2161.728c10.052,183.02,18.32,369.446,24.584,559.175
				c4.703,142.372,8.155,282.938,10.449,421.655c16.776,2.071,33.552,4.144,50.33,6.213c16.21-30.181,37.741-76.323,52.49-135.465
				c17.914-71.829,13.766-114.485,21.622-188.929c8.815-83.496,21.618-101.686,44.299-207.015
				c46.034-213.761,69.052-320.643,17.7-387.128C2875.715,2208.649,2823.457,2154.506,2670.909,2161.728z"/>
			
				<linearGradient id="SVGID_00000134941746988896210760000007119765069389223309_" gradientUnits="userSpaceOnUse" x1="1714.751" y1="1475.6807" x2="1379.8778" y2="3081.2317" gradientTransform="matrix(-1 0 0 1 4299.5825 0)">
				<stop  offset="0" style="stop-color:#FF9085"/>
				<stop  offset="1" style="stop-color:#FB6FBB"/>
			</linearGradient>
			<path style="fill:url(#SVGID_00000134941746988896210760000007119765069389223309_);" d="M2915.409,1701.748
				c-39.288-11.048-96.868-23.969-167.385-27.954c-100.576-5.685-150.865-8.527-186.501,15.424
				c-82.305,55.318-18.584,182.993-52.275,499.486c-4.812,45.198-5.891,90.717-9.375,136.036
				c-5.77,75.036-7.083,79.109-1.862,86.713c32.74,47.68,154.89-24.238,333.927,4.191c100.174,15.906,145.607,52.552,173.051,26.121
				c32.005-30.824,4.552-113.731-19.081-185.102c-27.127-81.923-43.885-82.977-59.282-144.675
				c-16.094-64.487-6.36-97.691-3.853-199.383C2923.972,1863.947,2923.717,1791.532,2915.409,1701.748z"/>
			<g style="opacity:0.3;">
				
					<linearGradient id="SVGID_00000182490530191464662750000003208775393726073737_" gradientUnits="userSpaceOnUse" x1="1426.7623" y1="2848.8062" x2="1553.8544" y2="2245.1216" gradientTransform="matrix(-1 0 0 1 4299.5825 0)">
					<stop  offset="0" style="stop-color:#FF9085"/>
					<stop  offset="1" style="stop-color:#FB6FBB"/>
				</linearGradient>
				<path style="fill:url(#SVGID_00000182490530191464662750000003208775393726073737_);" d="M2671.948,2295.923
					c46.794-3.662,77.151,22.794,117.544,2.177c55.389-28.272,73.186-116.236,69.656-178.493
					c-5.363-94.592-59.376-119.526-50.065-180.67c5.035-33.066,28.643-76.967,113.405-121.818
					c1.13,37.748,0.915,69.924,0.285,95.487c-2.506,101.692-12.241,134.896,3.853,199.383
					c15.398,61.698,32.155,62.752,59.282,144.675c23.632,71.371,51.086,154.278,19.081,185.102
					c-27.444,26.431-72.877-10.215-173.051-26.121c-154.267-24.496-266.238,25.447-315.229,9.25
					C2575.909,2327.068,2629.603,2299.236,2671.948,2295.923z"/>
			</g>
			
				<linearGradient id="SVGID_00000033350177285563446270000014235231251055470987_" gradientUnits="userSpaceOnUse" x1="1485.35" y1="1427.8342" x2="1150.4767" y2="3033.3862" gradientTransform="matrix(-1 0 0 1 4299.5825 0)">
				<stop  offset="0" style="stop-color:#FF9085"/>
				<stop  offset="1" style="stop-color:#FB6FBB"/>
			</linearGradient>
			<path style="fill:url(#SVGID_00000033350177285563446270000014235231251055470987_);" d="M2851.58,1708.242
				c33.42-27.46,100.619,3.624,118.582,11.932c100.173,46.336,190.113,171.198,167.828,303.151
				c-3.342,19.79-18.84,112.354-97.22,157.205c-70.723,40.469-166.219,30.061-242.733-27.257
				c-10.455-9.279-20.914-18.555-31.371-27.834c-10.286-11.119-20.576-22.239-30.863-33.36
				c16.171-13.451,43.647-32.855,82.235-45.307c50.875-16.417,87.914,13.04,111.519-9.355
				c16.291-15.456,16.327-42.755,12.305-59.299c-8.109-33.345-37.503-42.723-62.037-66.391
				C2822.184,1856.123,2811.565,1741.122,2851.58,1708.242z"/>
			<g>
				
					<linearGradient id="SVGID_00000107547789954631467140000015650689643587745163_" gradientUnits="userSpaceOnUse" x1="1770.8468" y1="2324.2085" x2="1716.6581" y2="2170.6736" gradientTransform="matrix(-1 0 0 1 4299.5825 0)">
					<stop  offset="0" style="stop-color:#311944"/>
					<stop  offset="1" style="stop-color:#893976"/>
				</linearGradient>
				<polygon style="fill:url(#SVGID_00000107547789954631467140000015650689643587745163_);" points="2371.301,2139.013 
					2819.257,2132.325 2700.138,2189.814 2370.156,2168.217 				"/>
				
					<linearGradient id="SVGID_00000078006684958670853350000001548519522494208680_" gradientUnits="userSpaceOnUse" x1="1534.1205" y1="2101.7603" x2="1553.9896" y2="2239.0386" gradientTransform="matrix(-1 0 0 1 4299.5825 0)">
					<stop  offset="0" style="stop-color:#311944"/>
					<stop  offset="1" style="stop-color:#893976"/>
				</linearGradient>
				<path style="fill:url(#SVGID_00000078006684958670853350000001548519522494208680_);" d="M2835.066,2144.229v0.002
					c0,8.383-5.246,15.871-13.124,18.736l-143.136,56.114l-0.652-38.903l141.104-47.854
					C2827.175,2130.049,2835.066,2135.993,2835.066,2144.229z"/>
			</g>
			
				<linearGradient id="SVGID_00000107564705429531659840000011656120143340758417_" gradientUnits="userSpaceOnUse" x1="2654.1025" y1="2123.3091" x2="2766.3979" y2="2123.3091">
				<stop  offset="0" style="stop-color:#FFC444"/>
				<stop  offset="0.9964" style="stop-color:#F36F56"/>
			</linearGradient>
			<path style="fill:url(#SVGID_00000107564705429531659840000011656120143340758417_);" d="M2766.089,2117.724
				c2.749-0.614-13.393-32.779-26.067-29.067c-12.67,3.713-74.651,39.633-80.285,54.424c-5.634,14.79-5.634,14.79-5.634,14.79
				s27.037,2.114,43.804-3.52C2714.674,2148.716,2743.733,2122.709,2766.089,2117.724z"/>
			<g>
				<g>
					
						<linearGradient id="SVGID_00000129915705459984945800000001345924317174669499_" gradientUnits="userSpaceOnUse" x1="1927.8193" y1="2113.7837" x2="1822.171" y2="1963.7632" gradientTransform="matrix(-1 0 0 1 4299.5825 0)">
						<stop  offset="0" style="stop-color:#444B8C"/>
						<stop  offset="0.9964" style="stop-color:#26264F"/>
					</linearGradient>
					<path style="fill:url(#SVGID_00000129915705459984945800000001345924317174669499_);" d="M2666.269,1907.223l31.576,287.496
						c1.089,9.92-12.798,24.699-22.767,24.228l-463.209-28.436c-7.612-0.362-13.95-5.963-15.238-13.474l-58.139-277.671
						c-1.735-10.104,16.43-20.541,26.678-20.255l485.414,13.649C2658.691,1892.989,2665.385,1899.16,2666.269,1907.223z"/>
					
						<linearGradient id="SVGID_00000011013474590834952990000003136866899734980285_" gradientUnits="userSpaceOnUse" x1="1725.1669" y1="2362.0652" x2="1956.3732" y2="1892.4279" gradientTransform="matrix(-1 0 0 1 4299.5825 0)">
						<stop  offset="0" style="stop-color:#311944"/>
						<stop  offset="1" style="stop-color:#893976"/>
					</linearGradient>
					<path style="fill:url(#SVGID_00000011013474590834952990000003136866899734980285_);" d="M2655.683,1915.604l31.576,287.499
						c1.089,9.92-6.942,18.466-16.91,17.996l-469.068-22.207c-7.61-0.361-13.948-5.963-15.237-13.472l-47.922-278.941
						c-1.736-10.107,6.212-19.273,16.461-18.984l485.415,13.649C2648.103,1901.37,2654.8,1907.544,2655.683,1915.604z"/>
				</g>
				
					<linearGradient id="SVGID_00000069365219956702302030000003857229910478509502_" gradientUnits="userSpaceOnUse" x1="1612.2246" y1="2060.6365" x2="2120.1523" y2="2060.6365" gradientTransform="matrix(-1 0 0 1 4299.5825 0)">
					<stop  offset="0" style="stop-color:#311944"/>
					<stop  offset="1" style="stop-color:#893976"/>
				</linearGradient>
				<path style="opacity:0.3;fill:url(#SVGID_00000069365219956702302030000003857229910478509502_);" d="M2380.247,2131.524
					c40.958-17.359,26.501-50.463,74.867-91.712c63.805-54.417,128.84-30.817,151.607-72.996
					c7.09-13.137,10.476-33.577-1.874-66.661l35.151,0.988c8.105,0.226,14.802,6.401,15.685,14.46l31.576,287.499
					c1.088,9.918-6.944,18.466-16.91,17.996l-469.068-22.207c-7.61-0.361-13.948-5.962-15.237-13.472l-6.613-38.491
					c14.232-7.92,31.239-15.122,51.083-19.148C2299.33,2113.823,2333.093,2151.51,2380.247,2131.524z"/>
			</g>
			
				<linearGradient id="SVGID_00000040570400512173880430000007388709867268558483_" gradientUnits="userSpaceOnUse" x1="2171.5398" y1="2180.751" x2="2247.2974" y2="2180.751">
				<stop  offset="0" style="stop-color:#FFC444"/>
				<stop  offset="0.9964" style="stop-color:#F36F56"/>
			</linearGradient>
			<path style="fill:url(#SVGID_00000040570400512173880430000007388709867268558483_);" d="M2171.73,2158.681
				c-0.763-2.316,0.854-4.702,3.29-4.826c9.914-0.506,32.906-0.711,45.6,7.062c16.489,10.1,37.81,28.531,19.855,37.83l-16.766,8.686
				c-0.77,0.399-1.609,0.523-2.454,0.338c-5.957-1.31-31.032-6.873-33.774-8.254
				C2184.985,2198.26,2175.425,2169.889,2171.73,2158.681z"/>
			<g>
				
					<linearGradient id="SVGID_00000111901218679208331790000016465513342984593589_" gradientUnits="userSpaceOnUse" x1="2649.1726" y1="1652.786" x2="2838.3623" y2="1652.786">
					<stop  offset="0" style="stop-color:#FFC444"/>
					<stop  offset="0.9964" style="stop-color:#F36F56"/>
				</linearGradient>
				<path style="fill:url(#SVGID_00000111901218679208331790000016465513342984593589_);" d="M2746.214,1573.694
					c-0.236,28.08,2.897,50.35,5.861,65.601c3.394,17.474,5.841,21.988,8.963,25.651c4.699,5.514,11.821,10.139,52.059,20.117
					c21.897,5.428,24.714,5.281,25.198,7.453c2.358,10.6-57.35,46.728-119.036,38.02c-37.753-5.328-72.103-26.867-69.994-38.178
					c2.122-11.383,44.91-1.907,56.149-22.5c7.819-14.326,5.809-37.392-4.551-54.235
					C2710.898,1596.822,2736.181,1592.494,2746.214,1573.694z"/>
				<g>
					
						<linearGradient id="SVGID_00000093145885200771830700000008987290862690162587_" gradientUnits="userSpaceOnUse" x1="2032.9532" y1="1171.6954" x2="1961.5295" y2="990.292" gradientTransform="matrix(0.963 0.2695 -0.2695 0.963 1115.7405 52.3174)">
						<stop  offset="0" style="stop-color:#311944"/>
						<stop  offset="1" style="stop-color:#6B3976"/>
					</linearGradient>
					<path style="fill:url(#SVGID_00000093145885200771830700000008987290862690162587_);" d="M2691.483,1573.717
						c-5.441-13.779-0.475-33.844,12.895-43.704c11.506-8.484,25.334-6.332,33.614-5.046c23.991,3.73,50.649,21.53,54.949,45.744
						c2.547,14.35-17.802,37.09-21.156,41.262c-3.798,4.716-8.509,5.394-13.517,8.37c-6.94,4.129-17.844,10.731-35.741,21.866
						c0.146-4.702,0.023-10.608-0.93-17.234c-0.367-2.551-1.912-12.544-5.926-21.585
						C2707.63,1585.271,2696.642,1586.776,2691.483,1573.717z"/>
					
						<linearGradient id="SVGID_00000168831477560283574660000007270625136632293531_" gradientUnits="userSpaceOnUse" x1="4224.8882" y1="1205.2356" x2="4231.813" y2="1411.8209" gradientTransform="matrix(0.964 0.266 -0.266 0.964 -1020.3879 -705.4422)">
						<stop  offset="0" style="stop-color:#FFC444"/>
						<stop  offset="0.9964" style="stop-color:#F36F56"/>
					</linearGradient>
					<path style="fill:url(#SVGID_00000168831477560283574660000007270625136632293531_);" d="M2745.642,1635.072
						c0,0-22.203,20.858-52.089,10.482c-26.757-9.291-13.89-71.495,7.091-79.659c7-2.723,19.123-1.312,27.847,3.946
						c5.152,3.106,6.404,5.948,14.921,10.858c7.858,4.532,10.505,4.253,12.468,7.106c2.452,3.572,2.974,10.809-7.29,27.2
						c6.651-3.829,13.448-4.127,17.293-0.82c0.612,0.529,2.132,2.317,2.653,4.536
						C2770.421,1626.751,2761.587,1633.905,2745.642,1635.072z"/>
				</g>
			</g>
		</g>
	</g>
</g>
</svg>
